<svg width="40" height="40" viewBox="0 0 40 40" fill="none" xmlns="http://www.w3.org/2000/svg">
<rect width="40" height="40" rx="20" fill="#25A3E2"/>
<g clip-path="url(#clip0_418_715)">
<path fill-rule="evenodd" clip-rule="evenodd" d="M26.0169 12.1175C26.264 12.0135 26.5345 11.9776 26.8002 12.0136C27.0659 12.0496 27.317 12.1561 27.5276 12.3222C27.7381 12.4882 27.9003 12.7076 27.9973 12.9575C28.0942 13.2075 28.1224 13.4789 28.0789 13.7435L25.8109 27.5005C25.5909 28.8275 24.1349 29.5885 22.9179 28.9275C21.8999 28.3745 20.3879 27.5225 19.0279 26.6335C18.3479 26.1885 16.2649 24.7635 16.5209 23.7495C16.7409 22.8825 20.2409 19.6245 22.2409 17.6875C23.0259 16.9265 22.6679 16.4875 21.7409 17.1875C19.4379 18.9255 15.7429 21.5685 14.5209 22.3125C13.4429 22.9685 12.8809 23.0805 12.2089 22.9685C10.9829 22.7645 9.84589 22.4485 8.91789 22.0635C7.66389 21.5435 7.72489 19.8195 8.91689 19.3175L26.0169 12.1175Z" fill="white"/>
</g>
<defs>
<clipPath id="clip0_418_715">
<rect width="24" height="24" fill="white" transform="translate(8 8)"/>
</clipPath>
</defs>
</svg>
