<svg width="40" height="40" viewBox="0 0 40 40" fill="none" xmlns="http://www.w3.org/2000/svg">
<rect width="40" height="40" rx="20" fill="#FE0000"/>
<path fill-rule="evenodd" clip-rule="evenodd" d="M14.989 12.89C18.3246 12.629 21.6754 12.629 25.011 12.89L27.251 13.066C27.8577 13.1133 28.4311 13.3623 28.8798 13.7733C29.3285 14.1844 29.6268 14.7338 29.727 15.334C30.244 18.424 30.244 21.577 29.727 24.666C29.6268 25.2661 29.3287 25.8153 28.8802 26.2264C28.4317 26.6374 27.8585 26.8865 27.252 26.934L25.012 27.109C21.6761 27.37 18.3249 27.37 14.989 27.109L12.749 26.934C12.1423 26.8867 11.5689 26.6377 11.1202 26.2267C10.6714 25.8156 10.3732 25.2662 10.273 24.666C9.75686 21.5767 9.75686 18.4232 10.273 15.334C10.3732 14.7339 10.6713 14.1846 11.1198 13.7736C11.5683 13.3626 12.1415 13.1135 12.748 13.066L14.988 12.891L14.989 12.89ZM18 22.47V17.53C18.0001 17.477 18.0142 17.4249 18.0409 17.3791C18.0677 17.3334 18.1061 17.2955 18.1522 17.2694C18.1983 17.2433 18.2506 17.2298 18.3036 17.2305C18.3566 17.2311 18.4085 17.2458 18.454 17.273L22.571 19.743C22.6153 19.7697 22.652 19.8074 22.6774 19.8524C22.7029 19.8974 22.7162 19.9483 22.7162 20C22.7162 20.0517 22.7029 20.1026 22.6774 20.1476C22.652 20.1926 22.6153 20.2303 22.571 20.257L18.454 22.727C18.4085 22.7542 18.3566 22.7689 18.3036 22.7695C18.2506 22.7701 18.1983 22.7567 18.1522 22.7306C18.1061 22.7045 18.0677 22.6666 18.0409 22.6208C18.0142 22.5751 18.0001 22.523 18 22.47Z" fill="white"/>
</svg>
