<svg width="40" height="40" viewBox="0 0 40 40" fill="none" xmlns="http://www.w3.org/2000/svg">
<rect width="40" height="40" rx="20" fill="#5662F6"/>
<path d="M27.27 13.33C25.94 12.71 24.5 12.26 23 12C22.9868 11.9996 22.9738 12.0021 22.9617 12.0073C22.9496 12.0125 22.9388 12.0202 22.93 12.03C22.75 12.36 22.54 12.79 22.4 13.12C20.809 12.88 19.191 12.88 17.6 13.12C17.46 12.78 17.25 12.36 17.06 12.03C17.05 12.01 17.02 12 16.99 12C15.49 12.26 14.06 12.71 12.72 13.33C12.71 13.33 12.7 13.34 12.69 13.35C9.97 17.42 9.22 21.38 9.59 25.3C9.59 25.32 9.6 25.34 9.62 25.35C11.42 26.67 13.15 27.47 14.86 28C14.89 28.01 14.92 28 14.93 27.98C15.33 27.43 15.69 26.85 16 26.24C16.02 26.2 16 26.16 15.96 26.15C15.39 25.93 14.85 25.67 14.32 25.37C14.28 25.35 14.28 25.29 14.31 25.26C14.42 25.18 14.53 25.09 14.64 25.01C14.66 24.99 14.69 24.99 14.71 25C18.15 26.57 21.86 26.57 25.26 25C25.28 24.99 25.31 24.99 25.33 25.01C25.44 25.1 25.55 25.18 25.66 25.27C25.7 25.3 25.7 25.36 25.65 25.38C25.13 25.69 24.58 25.94 24.01 26.16C23.97 26.17 23.96 26.22 23.97 26.25C24.29 26.86 24.65 27.44 25.04 27.99C25.07 28 25.1 28.01 25.13 28C26.85 27.47 28.58 26.67 30.38 25.35C30.4 25.34 30.41 25.32 30.41 25.3C30.85 20.77 29.68 16.84 27.31 13.35C27.3 13.34 27.29 13.33 27.27 13.33ZM16.52 22.91C15.49 22.91 14.63 21.96 14.63 20.79C14.63 19.62 15.47 18.67 16.52 18.67C17.58 18.67 18.42 19.63 18.41 20.79C18.41 21.96 17.57 22.91 16.52 22.91ZM23.49 22.91C22.46 22.91 21.6 21.96 21.6 20.79C21.6 19.62 22.44 18.67 23.49 18.67C24.55 18.67 25.39 19.63 25.38 20.79C25.38 21.96 24.55 22.91 23.49 22.91Z" fill="white"/>
</svg>
