<svg width="23" height="16" viewBox="0 0 23 16" fill="none" xmlns="http://www.w3.org/2000/svg">
<path d="M22.5684 7.77182C21.982 7.36481 18.9065 6.48871 17.211 5.63357C15.5155 4.77843 16.0605 3.53804 16.4788 2.94645C16.8971 2.35487 18.301 1.9285 19.5128 3.17051C20.4579 4.13768 20.1597 4.80825 19.9816 5.0573C20.8099 4.1264 22.1708 3.84189 22.1708 3.84189C22.1708 3.84189 22.1708 3.37362 21.5007 2.70224C20.8306 2.03086 18.0062 0.5656 17.9855 0.485002C17.9648 0.404405 16.6884 2.19528 14.7212 2.17755C12.754 2.15982 12.2934 0.792889 12.2727 0.711486C12.252 0.630082 12.3779 2.1977 13.3611 3.11409C14.3443 4.03049 13.9682 3.90798 14.4909 5.37082C15.0136 6.83367 16.5417 6.85704 17.3369 7.26406C18.1321 7.67107 16.5417 8.17643 16.5417 8.17643C16.5417 8.17643 16.7298 8.14015 18.1586 8.05875C19.5874 7.97734 20.7263 8.97514 20.4778 10.2171C20.2575 11.3092 19.2917 11.7872 18.2414 11.8452C17.9763 11.4825 17.5597 11.2464 17.0752 11.0392C17.0803 11.0289 17.0861 11.019 17.0926 11.0094C17.0766 11.0164 17.0599 11.0218 17.0429 11.0255C16.5724 10.8273 16.0406 10.654 15.5246 10.4162C14.664 9.65377 15.1883 8.19335 15.1883 8.19335C15.1883 8.19335 14.6193 8.34971 14.2639 9.59494C13.0919 8.44723 14.2308 7.40994 14.2308 7.40994C14.2308 7.40994 12.7821 7.84839 13.029 9.07508C13.1557 9.70213 13.4555 10.2446 13.9832 10.7749C13.6841 11.8944 13.3677 12.4553 13.3677 12.4553C13.3677 12.4553 14.4768 12.2313 16.2759 12.7399C18.0749 13.2484 19.1848 15.2448 19.1848 15.3053C19.1848 15.3657 22.9121 10.9683 22.9121 10.9683C22.9121 10.9683 23.154 8.17884 22.5684 7.77182Z" fill="black"/>
<path d="M6.67548 0.482361C6.67548 0.482361 6.73783 0.814697 6.36041 1.66028C5.98299 2.50585 4.69029 2.53693 3.11827 2.14323C1.54625 1.74953 0.790583 0.482361 0.790583 0.482361C0.790583 0.482361 1.10565 2.05238 2.52305 3.56263C3.94044 5.07288 3.37432 5.58612 3.37432 7.36813C3.37432 9.15014 3.71349 11.3211 2.42578 11.5936C1.62595 11.755 0.79983 11.755 0 11.5936L3.6578 13.7383L3.8781 13.2545C4.09839 12.7715 4.63376 12.4089 6.0204 12.4998C7.40704 12.5906 7.39956 15.3059 7.39956 15.3059L9.16361 12.6759C9.16361 12.6759 8.60247 11.8335 8.38217 11.6319C8.66814 11.7554 9.66822 12.1021 9.66822 12.1021L11.4323 10.23C11.4323 10.23 11.6526 7.2701 10.7074 5.15656C9.76216 3.04301 6.67548 0.482361 6.67548 0.482361ZM5.66792 2.77523C6.64472 2.8358 8.09371 4.07348 8.78619 5.97663C8.95512 6.47049 9.05464 6.98374 9.08214 7.50281C8.21009 7.11708 7.08698 6.85648 6.23488 6.11211C4.89812 4.94138 6.10353 3.86149 6.10353 3.86149C6.10353 3.86149 5.36283 4.08225 5.02864 4.65049C5.02966 4.28618 5.00829 3.92213 4.96463 3.56024C4.82829 2.89557 4.69029 2.71386 5.66792 2.77523ZM5.00287 11.4127C4.82247 11.066 5.27554 10.8819 5.51496 10.827C5.54987 10.8875 5.58728 10.9489 5.62636 11.0126C5.79738 11.285 5.94208 11.5718 6.05864 11.8694C5.52826 11.8048 5.11842 11.6287 5.00287 11.4127ZM7.77531 11.6845C7.38594 11.8196 6.97565 11.891 6.56159 11.8957C6.62016 11.7286 6.65183 11.5539 6.65553 11.3777C6.66633 10.7313 5.78264 10.2731 5.49833 9.45378C5.21402 8.6345 6.01042 8.44563 6.01042 8.44563C6.01042 8.44563 5.30214 8.30377 5.08517 8.84411C5.06189 8.07105 5.05607 6.99834 5.0461 6.01489C5.43016 6.9824 6.34378 7.76821 8.04965 8.72457C8.41127 8.92699 8.72551 9.12305 8.99901 9.31033C8.81861 10.4803 8.38882 11.4685 7.7778 11.6845H7.77531Z" fill="black"/>
</svg>
