<svg width="27" height="42" viewBox="0 0 27 42" fill="none" xmlns="http://www.w3.org/2000/svg">
<path d="M21.4607 0.00113217C20.5873 0.0211981 19.7718 0.405126 18.6588 1.60557L17.5732 2.77074L16.4462 1.64704C15.2243 0.429708 14.2601 0.0936032 13.2826 0.137079C12.3053 0.180556 11.1562 0.700099 9.87087 1.75172L8.8423 2.59282L7.86535 1.6942C6.39314 0.34777 5.13845 -0.0512047 3.93669 0.0115014C3.06196 0.0573187 2.15432 0.390414 1.24866 0.972996L8.02548 13.2948C10.5818 14.8754 15.8055 15.4698 19.3979 13.6398L25.9474 1.37548C24.7052 0.863468 23.5886 0.338408 22.6236 0.137079C22.2742 0.0640059 21.95 0.0106635 21.636 0.00113217C21.5775 -0.000539991 21.5186 -0.000205558 21.4607 0.00113217ZM6.57808 16.0857C3.59477 18.2163 1.19937 21.8911 0.27154 27.2733C-0.627503 32.4898 0.788963 36.0129 3.2957 38.4139C5.8026 40.8151 9.56535 42.0487 13.3862 41.9985C17.2073 41.9484 21.0178 40.609 23.58 38.1632C26.1423 35.7174 27.5914 32.2394 26.7696 27.2628C25.9198 22.1197 23.7259 18.5428 20.9485 16.378C16.2371 18.8956 10.3463 18.3608 6.57808 16.0857Z" fill="white"/>
</svg>
