<svg width="44" height="34" viewBox="0 0 44 34" fill="none" xmlns="http://www.w3.org/2000/svg">
<path d="M43.75 21.5938C43.75 23.8029 41.9591 25.5938 39.75 25.5938H37.165L35.7494 33.7913L31.1763 25.5938H17.8438C15.6346 25.5938 13.8438 23.8029 13.8438 21.5938V20.9063H26.6562C29.4177 20.9063 31.6562 18.6677 31.6562 15.9063V6.1875H39.75C41.9591 6.1875 43.75 7.97836 43.75 10.1875V21.5938ZM26.1562 0C28.3654 0 30.1562 1.79086 30.1562 4V14.4063C30.1562 17.1677 27.9177 19.4063 25.1562 19.4063H12.8247L8.25062 27.6066L6.83406 19.4063H4.25C2.04086 19.4063 0.25 17.6154 0.25 15.4063V4C0.25 1.79086 2.04086 0 4.25 0H26.1562Z" fill="white"/>
</svg>
