<svg width="40" height="40" viewBox="0 0 40 40" fill="none" xmlns="http://www.w3.org/2000/svg">
<g clip-path="url(#clip0_12_532)">
<path fill-rule="evenodd" clip-rule="evenodd" d="M20 3.33325C10.795 3.33325 3.33331 10.7949 3.33331 19.9999C3.33331 29.2049 10.795 36.6666 20 36.6666C29.205 36.6666 36.6666 29.2049 36.6666 19.9999C36.6666 10.7949 29.205 3.33325 20 3.33325ZM20 4.99992C20 8.97817 18.4196 12.7935 15.6066 15.6065C12.7935 18.4196 8.97823 19.9999 4.99998 19.9999C8.97823 19.9999 12.7935 21.5803 15.6066 24.3933C18.4196 27.2064 20 31.0217 20 34.9999C20 31.0217 21.5803 27.2064 24.3934 24.3933C27.2064 21.5803 31.0217 19.9999 35 19.9999C31.0217 19.9999 27.2064 18.4196 24.3934 15.6065C21.5803 12.7935 20 8.97817 20 4.99992Z" fill="white"/>
</g>
<defs>
<clipPath id="clip0_12_532">
<rect width="40" height="40" fill="white"/>
</clipPath>
</defs>
</svg>
