<svg width="24" height="24" viewBox="0 0 24 24" fill="none" xmlns="http://www.w3.org/2000/svg">
<path fill-rule="evenodd" clip-rule="evenodd" d="M2.79839 15.2318C2.80235 15.244 2.80662 15.2561 2.81118 15.268C4.15472 19.0455 7.76152 21.75 12 21.75C16.2385 21.75 19.8453 19.0455 21.1888 15.268C21.1934 15.2561 21.1976 15.244 21.2016 15.2318C21.5568 14.2204 21.75 13.1328 21.75 12C21.75 10.8672 21.5568 9.77956 21.2016 8.76817C21.1976 8.75598 21.1934 8.74392 21.1888 8.732C19.8453 4.95453 16.2385 2.25 12 2.25C7.76152 2.25 4.15472 4.95453 2.81118 8.73199C2.80662 8.74391 2.80235 8.75598 2.79839 8.76818C2.44318 9.77957 2.25 10.8672 2.25 12C2.25 13.1328 2.44318 14.2204 2.79839 15.2318ZM14.1276 4.02694C14.9733 5.25369 15.6249 6.68525 16.0294 8.25H19.3504C18.2982 6.19169 16.4069 4.6336 14.1276 4.02694ZM12 3.76006C13.0949 4.94456 13.9597 6.48427 14.4741 8.25H9.52591C10.0403 6.48427 10.9051 4.94456 12 3.76006ZM15 12C15 11.2266 14.9362 10.4742 14.8156 9.75H9.18445C9.06378 10.4742 9 11.2266 9 12C9 12.7734 9.06378 13.5258 9.18445 14.25H14.8156C14.9362 13.5258 15 12.7734 15 12ZM9.52591 15.75C10.0403 17.5157 10.9051 19.0554 12 20.2399C13.0949 19.0554 13.9597 17.5157 14.4741 15.75H9.52591ZM7.66601 14.25C7.55689 13.5199 7.5 12.7677 7.5 12C7.5 11.2323 7.55689 10.4801 7.66601 9.75H4.06055C3.85825 10.4652 3.75 11.22 3.75 12C3.75 12.78 3.85825 13.5348 4.06055 14.25H7.66601ZM9.87244 19.9731C7.59312 19.3664 5.70177 17.8083 4.64956 15.75H7.9706C8.37506 17.3148 9.0267 18.7463 9.87244 19.9731ZM19.9395 14.25C20.1417 13.5348 20.25 12.78 20.25 12C20.25 11.22 20.1417 10.4652 19.9395 9.75H16.334C16.4431 10.4801 16.5 11.2323 16.5 12C16.5 12.7677 16.4431 13.5199 16.334 14.25H19.9395ZM14.1276 19.9731C16.4069 19.3664 18.2982 17.8083 19.3504 15.75H16.0294C15.6249 17.3148 14.9733 18.7463 14.1276 19.9731ZM9.87244 4.02694C9.0267 5.25369 8.37506 6.68525 7.97059 8.25H4.64956C5.70176 6.19169 7.59312 4.6336 9.87244 4.02694Z" fill="#182938"/>
</svg>
