<svg width="50" height="50" viewBox="0 0 50 50" fill="none" xmlns="http://www.w3.org/2000/svg">
<path fill-rule="evenodd" clip-rule="evenodd" d="M48.3164 25L25 1.68359L1.68359 25L25 48.3164L48.3164 25ZM25 0L3.13164e-06 25L25 50L50 25L25 0Z" fill="white" fill-opacity="0.4"/>
<path d="M17.7041 10.7959C21.7335 6.76647 28.2665 6.76647 32.2959 10.7959L38.9173 17.4173C42.9467 21.4467 42.9467 27.9797 38.9173 32.0091L32.2959 38.6305C28.2665 42.6599 21.7335 42.6599 17.7041 38.6305L11.0827 32.0091C7.05327 27.9797 7.05327 21.4467 11.0827 17.4173L17.7041 10.7959Z" fill="url(#paint0_linear_0_17)"/>
<path fill-rule="evenodd" clip-rule="evenodd" d="M37.7949 18.5397L31.1735 11.9183C27.764 8.50874 22.236 8.50874 18.8265 11.9183L12.2051 18.5397C8.79554 21.9492 8.79554 27.4772 12.2051 30.8867L18.8265 37.5081C22.236 40.9177 27.764 40.9177 31.1735 37.5082L37.7949 30.8867C41.2045 27.4772 41.2045 21.9492 37.7949 18.5397ZM32.2959 10.7959C28.2665 6.76647 21.7335 6.76647 17.7041 10.7959L11.0827 17.4173C7.05327 21.4467 7.05327 27.9797 11.0827 32.0091L17.7041 38.6305C21.7335 42.6599 28.2665 42.6599 32.2959 38.6305L38.9173 32.0091C42.9467 27.9797 42.9467 21.4467 38.9173 17.4173L32.2959 10.7959Z" fill="white" fill-opacity="0.2"/>
<path d="M25.5333 22.6664C24.1272 20.994 22.8752 20.0274 20.8612 20.0274C18.1816 20.0274 16.0093 22.1996 16.0093 24.8793C16.0093 27.5589 18.1816 29.7312 20.8612 29.7312C22.0115 29.7312 23.0683 29.3309 23.8999 28.662C24.401 28.2589 25.0077 27.6456 25.5057 27.0784C25.5057 27.0784 25.6278 22.7787 25.5333 22.6664ZM22.1902 26.3568C22.1159 26.4236 22.0442 26.4801 21.8751 26.5889C21.6555 26.73 21.2321 26.8688 20.8612 26.8688C19.7624 26.8688 18.8716 25.978 18.8716 24.8792C18.8716 23.7804 19.7624 22.8896 20.8612 22.8896C21.4104 22.8896 21.8922 23.1216 22.235 23.4402C22.6022 23.7814 23.5895 24.901 23.5895 24.901C23.5895 24.901 22.8374 25.8134 22.1902 26.3568Z" fill="url(#paint1_linear_0_17)"/>
<path d="M27.0783 21.1108C26.5232 21.5615 25.9852 22.1217 25.5281 22.6713L25.5057 27.0784C26.772 28.6458 28.2198 29.7312 30.1346 29.7312C32.8142 29.7312 34.9864 27.559 34.9864 24.8793C34.9864 22.1996 32.8141 20.0274 30.1346 20.0274C28.9762 20.0274 27.9126 20.4332 27.0783 21.1108ZM27.4065 24.901C27.4065 24.901 28.3938 23.7815 28.7609 23.4402C29.1037 23.1217 29.5856 22.8896 30.1346 22.8896C31.2334 22.8896 32.1241 23.7804 32.1241 24.8792C32.1241 25.978 31.2333 26.8688 30.1346 26.8688C29.7637 26.8688 29.3403 26.73 29.1209 26.5889C28.9516 26.4801 28.8799 26.4236 28.8057 26.3568C28.1585 25.8134 27.4065 24.901 27.4065 24.901Z" fill="url(#paint2_linear_0_17)"/>
<path d="M16.9764 21.9725C15.8221 23.5455 16.0116 25.1319 16.0116 25.1319C16.0116 25.1319 15.9519 22.1218 19.2488 22.1218C21.267 22.1218 22.6291 23.8256 23.5893 24.9011C24.0411 25.4071 24.6546 26.0775 25.5459 27.1324C26.637 28.4235 27.751 29.7313 30.1345 29.7313C31.7173 29.7313 33.1421 28.9741 33.9148 27.966C35.2239 26.2581 34.9825 24.6992 34.9825 24.6992C34.9825 24.6992 34.8344 27.6457 31.9271 27.6457C29.4694 27.6457 28.4704 25.9683 26.592 23.8126C24.7585 21.7083 23.5771 20 20.7954 20C19.084 20 17.6984 20.9887 16.9764 21.9725Z" fill="url(#paint3_linear_0_17)"/>
<defs>
<linearGradient id="paint0_linear_0_17" x1="12.1043" y1="39.8072" x2="36.7057" y2="15.2057" gradientUnits="userSpaceOnUse">
<stop stop-color="#46C562"/>
<stop offset="1" stop-color="#1B600A"/>
</linearGradient>
<linearGradient id="paint1_linear_0_17" x1="18.0342" y1="28.7809" x2="22.0841" y2="23.4063" gradientUnits="userSpaceOnUse">
<stop stop-color="white"/>
<stop offset="0.1575" stop-color="#FAFAFA"/>
<stop offset="0.3376" stop-color="#ECECEC"/>
<stop offset="0.5288" stop-color="#D6D6D6"/>
<stop offset="0.7276" stop-color="#B6B6B6"/>
<stop offset="0.9305" stop-color="#8D8D8D"/>
<stop offset="1" stop-color="#7D7D7D"/>
</linearGradient>
<linearGradient id="paint2_linear_0_17" x1="33.1129" y1="20.9557" x2="28.8941" y2="26.3556" gradientUnits="userSpaceOnUse">
<stop stop-color="white"/>
<stop offset="0.791" stop-color="white"/>
<stop offset="0.8223" stop-color="white"/>
<stop offset="0.9991" stop-color="#DEDEDE"/>
</linearGradient>
<linearGradient id="paint3_linear_0_17" x1="22.0334" y1="18.6667" x2="29.0036" y2="31.2413" gradientUnits="userSpaceOnUse">
<stop stop-color="white"/>
<stop offset="0.2943" stop-color="white"/>
<stop offset="0.379" stop-color="#EFEFEF"/>
<stop offset="0.6924" stop-color="#B5B5B5"/>
<stop offset="0.7822" stop-color="#BCBCBC"/>
<stop offset="0.9116" stop-color="#CFCFCF"/>
<stop offset="1" stop-color="#E0E0E0"/>
</linearGradient>
</defs>
</svg>
