<svg width="30" height="29" viewBox="0 0 30 29" fill="none" xmlns="http://www.w3.org/2000/svg">
<path d="M7.17421 15.7602L12.5049 21.0924L10.3741 23.2247C11.5517 24.4023 11.5532 26.3131 10.3756 27.4907L6.64341 23.7585C5.36665 25.0352 4.51977 25.8821 3.44389 26.958C2.85503 27.5469 1.90001 27.5471 1.31115 26.9583C0.722367 26.3695 0.722283 25.4149 1.31096 24.826L4.51115 21.6247L0.778936 17.894C1.95626 16.7167 3.86572 16.7156 5.04346 17.8925L7.17421 15.7602ZM1.06997 0.0683594L8.49991 3.16417L24.2368 17.894C25.4155 16.7161 27.3257 16.7161 28.5044 17.894L24.7722 21.6262L27.9708 24.826C28.5595 25.4149 28.5594 26.3695 27.9706 26.9583C27.3818 27.5471 26.427 27.5471 25.8382 26.9583L22.6384 23.7585L18.9077 27.4907C17.7292 26.3131 17.7286 24.4031 18.9062 23.2247L4.51115 7.4977L1.06997 0.0683594ZM20.4171 3.16417L28.2133 0.0728833L25.2923 6.95601L22.1046 11.4957L16.7724 6.16506L20.4171 3.16417Z" fill="white"/>
</svg>
