<svg width="50" height="50" viewBox="0 0 50 50" fill="none" xmlns="http://www.w3.org/2000/svg">
<path fill-rule="evenodd" clip-rule="evenodd" d="M48.3164 25L25 1.68359L1.68359 25L25 48.3164L48.3164 25ZM25 0L-6.83054e-07 25L25 50L50 25L25 0Z" fill="white" fill-opacity="0.4"/>
<path d="M17.7041 10.7959C21.7335 6.76647 28.2665 6.76647 32.2959 10.7959L38.9173 17.4173C42.9467 21.4467 42.9467 27.9797 38.9173 32.0091L32.2959 38.6305C28.2665 42.6599 21.7335 42.6599 17.7041 38.6305L11.0827 32.0091C7.05326 27.9797 7.05326 21.4467 11.0827 17.4173L17.7041 10.7959Z" fill="url(#paint0_linear_0_12)"/>
<path fill-rule="evenodd" clip-rule="evenodd" d="M37.7949 18.5397L31.1735 11.9183C27.764 8.50874 22.236 8.50874 18.8265 11.9183L12.2051 18.5397C8.79554 21.9492 8.79553 27.4772 12.205 30.8867L18.8265 37.5081C22.236 40.9177 27.764 40.9177 31.1735 37.5082L37.7949 30.8867C41.2045 27.4772 41.2045 21.9492 37.7949 18.5397ZM32.2959 10.7959C28.2665 6.76647 21.7335 6.76647 17.7041 10.7959L11.0827 17.4173C7.05326 21.4467 7.05326 27.9797 11.0827 32.0091L17.7041 38.6305C21.7335 42.6599 28.2665 42.6599 32.2959 38.6305L38.9173 32.0091C42.9467 27.9797 42.9467 21.4467 38.9173 17.4173L32.2959 10.7959Z" fill="white" fill-opacity="0.2"/>
<path d="M20.46 25.5834L23.344 28.5001L22.1912 29.6665L-nan -nanL22.1912 29.6665C-nan -nan -nan -nan 22.192 32C-nan -nan -nan -nan 22.192 32Lnan nanL22.192 32L20.1728 29.9585C19.4888 30.6501 19.0328 31.1111 18.4587 31.6915C18.1336 32.0202 17.5961 32.0203 17.271 31.6916C-nan -nan -nan -nan 17.271 31.6916Lnan nanL17.271 31.6916C-nan -nan -nan -nan 17.2709 30.5596L19.0192 28.7913L17 26.7506L-nan -nanL17 26.7506C-nan -nan -nan -nan 19.3072 26.7498C-nan -nan -nan -nan 19.3072 26.7498Lnan nanL19.3072 26.7498L20.46 25.5834ZM17.1575 17L21.1772 18.6934L29.6912 26.7506L-nan -nanL29.6912 26.7506C-nan -nan -nan -nan 32 26.7506C-nan -nan -nan -nan 32 26.7506Lnan nanL32 26.7506L29.9808 28.7921L31.7283 30.5596C32.0401 30.8749 32.04 31.3764 31.7282 31.6916C-nan -nan -nan -nan 31.7282 31.6916Lnan nanL31.7282 31.6916C-nan -nan -nan -nan 30.5406 31.6916L28.8264 29.9585L26.808 32L-nan -nanL26.808 32C-nan -nan -nan -nan 26.8072 29.6665C-nan -nan -nan -nan 26.8072 29.6665Lnan nanL26.8072 29.6665L19.0192 21.0638L17.1575 17ZM27.6246 18.6934L31.8425 17.0025L30.2622 20.7675L28.5376 23.2508L25.6528 20.3349L27.6246 18.6934Z" fill="white"/>
<path d="M20.46 25.5834L23.344 28.5001L22.1912 29.6665L-nan -nanL22.1912 29.6665C-nan -nan -nan -nan 22.192 32C-nan -nan -nan -nan 22.192 32Lnan nanL22.192 32L20.1728 29.9585C19.4888 30.6501 19.0328 31.1111 18.4587 31.6915C18.1336 32.0202 17.5961 32.0203 17.271 31.6916C-nan -nan -nan -nan 17.271 31.6916Lnan nanL17.271 31.6916C-nan -nan -nan -nan 17.2709 30.5596L19.0192 28.7913L17 26.7506L-nan -nanL17 26.7506C-nan -nan -nan -nan 19.3072 26.7498C-nan -nan -nan -nan 19.3072 26.7498Lnan nanL19.3072 26.7498L20.46 25.5834ZM17.1575 17L21.1772 18.6934L29.6912 26.7506L-nan -nanL29.6912 26.7506C-nan -nan -nan -nan 32 26.7506C-nan -nan -nan -nan 32 26.7506Lnan nanL32 26.7506L29.9808 28.7921L31.7283 30.5596C32.0401 30.8749 32.04 31.3764 31.7282 31.6916C-nan -nan -nan -nan 31.7282 31.6916Lnan nanL31.7282 31.6916C-nan -nan -nan -nan 30.5406 31.6916L28.8264 29.9585L26.808 32L-nan -nanL26.808 32C-nan -nan -nan -nan 26.8072 29.6665C-nan -nan -nan -nan 26.8072 29.6665Lnan nanL26.8072 29.6665L19.0192 21.0638L17.1575 17ZM27.6246 18.6934L31.8425 17.0025L30.2622 20.7675L28.5376 23.2508L25.6528 20.3349L27.6246 18.6934Z" fill="url(#paint1_linear_0_12)" fill-opacity="0.2"/>
<defs>
<linearGradient id="paint0_linear_0_12" x1="12.1043" y1="39.8072" x2="36.7057" y2="15.2057" gradientUnits="userSpaceOnUse">
<stop stop-color="#E76D6D"/>
<stop offset="1" stop-color="#C00808"/>
</linearGradient>
<linearGradient id="paint1_linear_0_12" x1="24.5" y1="17" x2="24.5" y2="32" gradientUnits="userSpaceOnUse">
<stop/>
<stop offset="1" stop-opacity="0"/>
</linearGradient>
</defs>
</svg>
