<svg width="48" height="48" viewBox="0 0 48 48" fill="none" xmlns="http://www.w3.org/2000/svg">
<g filter="url(#filter0_d_520_5010)">
<rect x="12" y="12" width="24" height="24" rx="12" fill="url(#paint0_linear_520_5010)" shape-rendering="crispEdges"/>
<rect x="13" y="13" width="22" height="22" rx="11" stroke="white" stroke-opacity="0.2" stroke-width="2" shape-rendering="crispEdges"/>
<path d="M28.0001 21.3334H27.3334V20.0001C27.3334 18.1601 25.8401 16.6667 24.0001 16.6667C22.1601 16.6667 20.6667 18.1601 20.6667 20.0001V21.3334H20.0001C19.2667 21.3334 18.6667 21.9334 18.6667 22.6667V29.3334C18.6667 30.0667 19.2667 30.6667 20.0001 30.6667H28.0001C28.7334 30.6667 29.3334 30.0667 29.3334 29.3334V22.6667C29.3334 21.9334 28.7334 21.3334 28.0001 21.3334ZM24.0001 27.3334C23.2667 27.3334 22.6667 26.7334 22.6667 26.0001C22.6667 25.2667 23.2667 24.6667 24.0001 24.6667C24.7334 24.6667 25.3334 25.2667 25.3334 26.0001C25.3334 26.7334 24.7334 27.3334 24.0001 27.3334ZM26.0667 21.3334H21.9334V20.0001C21.9334 18.8601 22.8601 17.9334 24.0001 17.9334C25.1401 17.9334 26.0667 18.8601 26.0667 20.0001V21.3334Z" fill="white"/>
</g>
<defs>
<filter id="filter0_d_520_5010" x="-28" y="-18" width="104" height="104" filterUnits="userSpaceOnUse" color-interpolation-filters="sRGB">
<feFlood flood-opacity="0" result="BackgroundImageFix"/>
<feColorMatrix in="SourceAlpha" type="matrix" values="0 0 0 0 0 0 0 0 0 0 0 0 0 0 0 0 0 0 127 0" result="hardAlpha"/>
<feOffset dy="10"/>
<feGaussianBlur stdDeviation="20"/>
<feComposite in2="hardAlpha" operator="out"/>
<feColorMatrix type="matrix" values="0 0 0 0 0.0392157 0 0 0 0 0.364706 0 0 0 0 0.752941 0 0 0 0.1 0"/>
<feBlend mode="normal" in2="BackgroundImageFix" result="effect1_dropShadow_520_5010"/>
<feBlend mode="normal" in="SourceGraphic" in2="effect1_dropShadow_520_5010" result="shape"/>
</filter>
<linearGradient id="paint0_linear_520_5010" x1="37.1547" y1="37.1547" x2="15.0008" y2="15.0008" gradientUnits="userSpaceOnUse">
<stop stop-color="#EF7708"/>
<stop offset="1" stop-color="#C93709"/>
</linearGradient>
</defs>
</svg>
