<svg width="163" height="34" viewBox="0 0 163 34" fill="none" xmlns="http://www.w3.org/2000/svg">
<path d="M42.3222 8.81261C42.3222 8.81261 42.0475 10.2909 40.0613 11.8247C38.0751 13.3584 35.0624 12.7338 31.7749 12.525C28.4875 12.3162 26.982 7.83325 26.982 7.83325C26.982 7.83325 26.9133 8.81262 27.4609 11.2629C28.0086 13.7132 31.1586 15.3282 31.5707 18.1961C31.9828 21.0641 29.7887 20.7832 29.7887 20.7832C29.7887 20.7832 30.3309 20.9236 31.1586 21.6942C31.9864 22.4647 32.1183 26.8682 29.9261 27.7164C27.7338 28.5646 25.885 26.8756 25.885 26.8756C25.885 26.8756 26.091 27.6462 27.667 28.766C29.2429 29.8858 31.643 31.4972 31.643 31.4972C31.643 31.4972 33.0888 28.2763 37.4642 29.0469C41.8397 29.8175 41.1637 33.6666 41.1637 33.6666C41.1637 33.6666 41.6427 33.3155 42.5337 31.706C43.4247 30.0965 44.1078 25.5433 44.1078 25.5433C40.2728 29.1153 35.6136 28.6237 34.7949 27.576C33.9762 26.5282 33.9039 24.5639 35.075 22.1839C36.2461 19.8038 40.9577 20.7481 40.9577 20.7481C40.9577 20.7481 40.2728 19.874 38.2866 19.3123C36.3004 18.7505 33.9039 19.8666 33.9039 19.8666C33.9039 19.8666 33.9039 16.4351 34.1099 15.0344C34.316 13.6337 37.5329 13.4231 40.6161 14.0532C43.6994 14.6833 44.1024 18.1943 44.1024 18.1943C44.1024 18.1943 44.4458 17.7046 44.1024 15.1139C43.759 12.5232 42.3222 8.81261 42.3222 8.81261Z" fill="#182938"/>
<path d="M51.77 21.1666C51.77 21.6717 51.77 21.9999 51.77 21.9999C51.77 21.9142 51.77 21.6303 51.77 21.1666Z" fill="#182938"/>
<path d="M52.6057 17.5177C49.206 14.6717 49.8376 12.2241 52.6057 12.0195C55.3738 11.815 56.4599 16.1001 56.4599 16.1001C56.4599 16.1001 56.9967 14.8081 58.0863 14.3308C59.176 13.8535 59.5786 13.8552 59.5786 13.8552C59.5786 13.8552 56.4599 12.0877 54.9676 10.7275C53.4753 9.36734 52.255 9.50372 52.255 9.50372C52.255 9.50372 52.255 11.815 49.5424 12.0159C46.8298 12.2169 44.255 10.724 44.255 10.724C44.255 10.724 44.9314 12.6978 46.0175 13.5125L47.1018 14.3272C47.1018 14.3272 46.0175 16.8394 48.5941 18.2032C51.1707 19.5669 52.323 19.9725 52.119 20.8213C51.9991 21.3237 51.7862 21.5283 51.6305 21.6126C52.2443 21.4332 54.2501 20.9325 55.7817 21.6718C57.6122 22.5565 57.8144 24.9359 56.3919 26.2961C54.9694 27.6563 52.5789 28.7437 50.7896 27.0444C49.0002 25.345 48.4635 22.02 48.4635 22.02C48.1297 23.1436 47.6986 24.2357 47.1752 25.284C46.225 27.2579 45.7437 28.5481 45.7437 28.5481C45.7437 28.5481 47.5742 27.7335 51.1009 29.0255C54.6276 30.3174 55.1698 32.8333 55.1698 32.8333L60.8651 25.9641C60.8651 25.9641 61.0673 22.2927 60.8651 21.3398C60.6629 20.387 56.0072 20.3655 52.6057 17.5177Z" fill="#182938"/>
<path d="M78.3195 8.73449C78.3195 8.73449 78.3633 10.5798 76.2787 11.9299C74.1941 13.28 73.5746 12.6423 73.5746 12.6423L71.0934 7.83325L69.1421 12.6423C69.1421 12.6423 67.8559 12.8667 66.4381 11.7428C65.0202 10.6189 64.9746 8.45843 64.9746 8.45843C64.9746 8.45843 64.3552 8.77191 63.6006 10.5726C62.8461 12.3734 62.625 17.0079 62.625 17.0079C62.625 17.0079 64.1779 14.3077 67.0592 14.0369C69.9405 13.7662 70.295 16.1066 70.2055 18.7623C70.116 21.418 69.3422 21.2559 69.3422 21.2559C69.3422 21.2559 70.5161 21.7902 70.0739 25.0711C69.6317 28.3519 65.6397 27.2761 65.6397 27.2761C65.6397 27.2761 66.0836 27.4542 68.6982 28.5354C71.3128 29.6165 73.0429 32.8333 73.0429 32.8333C73.0429 32.8333 72.5165 26.195 72.5551 23.7655C72.5937 21.336 73.4869 20.9157 73.4869 20.9157C73.4869 20.9157 72.2445 18.8122 72.5113 16.5626C72.778 14.313 74.2397 13.9069 77.0332 14.7619C79.8268 15.6168 80.004 17.2822 80.004 17.2822C80.004 17.2822 80.355 14.9435 80.004 12.7385C79.6531 10.5335 78.3195 8.73449 78.3195 8.73449Z" fill="#182938"/>
<path d="M115.541 18.4874C117.67 15.0275 119.732 17.9394 119.732 17.9394C119.732 17.9394 120.064 17.3165 119 15.3819C117.937 13.4473 112.947 8.66658 112.947 8.66658C112.947 8.66658 112.947 10.9519 109.623 11.5054C106.298 12.0589 103.831 9.0831 103.569 9.07944C103.308 9.07579 104.833 10.6048 106.904 14.0666C108.975 17.5284 108.168 19.9507 107.968 23.4819C107.768 27.0131 103.911 27.5008 103.911 27.5008C103.911 27.5008 104.377 27.5703 106.637 28.3302C108.898 29.0901 111.227 32.6232 111.227 32.6232C111.227 32.6232 110.097 25.4238 109.972 21.8926C109.909 19.6941 110.176 17.4988 110.762 15.3855C110.762 15.3855 109.231 13.3085 110.428 12.6161C111.625 11.9238 115.483 12.5467 115.483 15.455C115.483 18.3632 111.825 17.2543 111.622 17.2452C111.418 17.2361 113.219 19.1231 114.957 22.7256C116.694 26.328 115.555 29.0244 115.555 29.0244C115.555 29.0244 116.354 29.0938 118.316 30.0638C119.497 30.6547 120.465 31.6257 121.075 32.8333C121.075 32.8333 120.877 30.4091 119.144 25.9097C117.412 21.4103 115.434 18.6628 115.541 18.4874Z" fill="#182938"/>
<path d="M136.234 10.8509L135.022 12.9039C133.812 14.9514 132.872 15.0864 132.872 15.0864C132.872 15.0864 134.291 17.6075 134.082 22.9343C133.872 28.261 131.729 28.3943 130.854 28.2574C129.979 28.1206 127.553 26.2045 127.021 24.5676C126.488 22.9307 127.424 13.4441 127.424 13.4441C124.939 12.9039 121.91 8.66658 121.91 8.66658C121.91 8.66658 124.128 14.195 124.128 19.8477C124.128 24.7603 123.418 28.099 123.099 28.8895C123.507 28.5149 124.847 27.7154 126.854 27.9891C129.447 28.3295 129.912 32.8333 129.912 32.8333C129.912 32.8333 132.069 28.1098 133.544 28.8715C134.74 29.4946 134.609 31.5727 134.525 32.2678C134.609 31.9509 134.85 31.2882 135.494 30.0312C136.367 28.3259 137.915 28.2862 137.915 28.2862C137.348 27.7873 136.89 27.174 136.57 26.4855C135.965 25.2573 136.367 21.6395 136.435 18.9779C136.502 16.3164 136.367 14.8847 137.855 15.5672C139.342 16.2497 139.335 17.6147 139.335 17.6147C139.335 17.6147 139.867 15.976 138.595 14.0654C137.322 12.1547 136.234 10.8509 136.234 10.8509Z" fill="#182938"/>
<path d="M161.965 16.7249C160.683 15.8097 153.957 13.8396 150.249 11.9167C146.541 9.99373 147.733 7.20449 148.648 5.8742C149.562 4.54391 152.633 3.58515 155.283 6.37802C157.35 8.55288 156.697 10.0608 156.308 10.6208C158.119 8.52751 161.096 7.88775 161.096 7.88775C161.096 7.88775 161.096 6.83475 159.63 5.32504C158.165 3.81533 151.988 0.520429 151.943 0.339191C151.897 0.157953 149.106 4.18506 144.804 4.14518C140.502 4.10531 139.495 1.03153 139.449 0.84848C139.404 0.66543 139.679 4.19049 141.83 6.25117C143.98 8.31184 143.157 8.03636 144.3 11.3258C145.443 14.6153 148.785 14.6678 150.524 15.5831C152.263 16.4984 148.785 17.6347 148.785 17.6347C148.785 17.6347 149.196 17.5532 152.321 17.3701C155.446 17.187 157.936 19.4308 157.393 22.2237C156.911 24.6794 154.799 25.7542 152.502 25.8846C151.923 25.0691 151.012 24.5381 149.952 24.0723C149.963 24.0491 149.976 24.0267 149.99 24.0052C149.955 24.0208 149.919 24.033 149.881 24.0415C148.852 23.5956 147.689 23.206 146.561 22.6713C144.679 20.9568 145.825 17.6728 145.825 17.6728C145.825 17.6728 144.581 18.0244 143.804 20.8245C141.241 18.2437 143.732 15.9111 143.732 15.9111C143.732 15.9111 140.563 16.8971 141.103 19.6555C141.38 21.0655 142.036 22.2853 143.19 23.4778C142.536 25.9952 141.844 27.2566 141.844 27.2566C141.844 27.2566 144.27 26.7528 148.204 27.8964C152.138 29.04 154.565 33.5293 154.565 33.6652C154.565 33.8011 162.717 23.9128 162.717 23.9128C162.717 23.9128 163.246 17.6402 161.965 16.7249Z" fill="#182938"/>
<path d="M14.5986 0.333252C14.5986 0.333252 14.735 1.08057 13.9096 2.982C13.0842 4.88344 10.2572 4.95332 6.81936 4.06801C3.3815 3.18271 1.72893 0.333252 1.72893 0.333252C1.72893 0.333252 2.41796 3.86372 5.51767 7.25978C8.61738 10.6558 7.37931 11.81 7.37931 15.8171C7.37931 19.8243 8.12106 24.706 5.30496 25.3189C3.55581 25.6819 1.74915 25.6819 0 25.3189L7.99925 30.1415L8.48103 29.0537C8.9628 27.9677 10.1336 27.1523 13.166 27.3566C16.1985 27.5609 16.1821 33.6666 16.1821 33.6666L20.0399 27.7526C20.0399 27.7526 18.8128 25.8583 18.331 25.4049C18.9564 25.6827 21.1435 26.4623 21.1435 26.4623L25.0013 22.2526C25.0013 22.2526 25.4831 15.5967 23.416 10.844C21.3489 6.09132 14.5986 0.333252 14.5986 0.333252ZM12.3952 5.48917C14.5314 5.62537 17.7002 8.40851 19.2146 12.6881C19.584 13.7986 19.8016 14.9528 19.8618 16.12C17.9547 15.2526 15.4986 14.6666 13.6351 12.9928C10.7117 10.3601 13.3478 7.93182 13.3478 7.93182C13.3478 7.93182 11.728 8.42824 10.9972 9.70602C10.9994 8.88682 10.9526 8.06818 10.8572 7.2544C10.559 5.75977 10.2572 5.35118 12.3952 5.48917ZM10.9408 24.9121C10.5463 24.1325 11.5371 23.7186 12.0607 23.5949C12.137 23.7311 12.2189 23.8691 12.3043 24.0125C12.6783 24.6249 12.9948 25.2698 13.2497 25.939C12.0898 25.7938 11.1935 25.3978 10.9408 24.9121ZM17.0039 25.5232C16.1523 25.827 15.2551 25.9875 14.3496 25.9981C14.4777 25.6224 14.5469 25.2296 14.555 24.8332C14.5786 23.3798 12.6461 22.3494 12.0243 20.5071C11.4026 18.6648 13.1442 18.2401 13.1442 18.2401C13.1442 18.2401 11.5953 17.9211 11.1208 19.1361C11.0699 17.3978 11.0571 14.9856 11.0353 12.7741C11.8753 14.9497 13.8732 16.7168 17.6038 18.8673C18.3946 19.3225 19.0819 19.7634 19.68 20.1845C19.2855 22.8153 18.3456 25.0376 17.0093 25.5232H17.0039Z" fill="#182938"/>
<path d="M101.781 10.8211C101.781 10.8211 102.247 13.783 100.004 15.2338C99.8989 15.3015 99.7918 15.362 99.6847 15.4169C98.8208 13.6951 97.5321 12.2169 95.8859 11.3578C94.1816 10.4675 92.7405 10.2422 91.4736 10.2935C91.1392 10.2116 90.8139 10.0956 90.5026 9.94733C88.4626 8.95818 88.5533 6.41203 88.5533 6.41203L88.5243 6.16658C88.5243 6.16658 87.5424 9.18165 88.5533 10.7881C88.0251 10.9249 87.4876 11.0222 86.9452 11.0793C85.5588 11.1909 84.1637 11.0671 82.8179 10.713C83.4669 12.1804 83.6274 13.8205 83.2753 15.3876C82.68 17.9777 82.1264 22.5315 83.6383 25.1161C86.7111 30.3567 92.991 32.8333 92.991 32.8333C92.991 32.8333 99.1801 27.4644 100.509 23.44C101.07 21.7457 101.053 19.7179 100.558 17.7762C101.249 17.2963 101.863 16.8054 102.24 16.2174C103.511 14.2428 101.774 10.528 101.774 10.528L101.781 10.8211ZM94.4847 17.2542C94.4466 17.1718 94.4121 17.0912 94.3722 17.0087C93.1017 14.36 90.0162 14.2318 90.0162 14.2318C90.0162 14.2318 92.8766 17.9155 93.6135 21.5735C93.537 22.6399 93.5498 23.711 93.6516 24.7754C93.2233 27.4809 92.0036 26.6493 91.0707 25.7077C90.1378 24.7662 89.8111 22.6359 89.9817 21.8244C89.9726 21.861 90.2322 21.7951 90.5262 21.709C91.127 22.2219 92.0381 23.6269 92.0381 23.6269C92.0381 23.6269 92.3594 22.6542 91.8203 20.5715C91.2813 18.4888 89.3319 15.8511 89.3319 15.8511C89.3319 15.8511 89.1287 16.8897 88.9562 18.3093C88.4408 18.2983 87.9253 18.5364 87.3227 18.476C86.339 18.3789 85.9996 17.3201 85.9996 17.3201L85.9506 17.223C85.9506 17.223 85.9996 18.7453 86.7456 19.183C87.261 19.4853 88.1032 19.3992 88.8147 19.6153C88.7021 20.9415 88.6586 22.4051 88.8147 23.6269C89.2285 26.7262 90.3738 27.6054 90.3738 27.6054C90.3738 27.6054 87.8527 26.8727 86.339 25.0611C84.8253 23.2495 84.9179 20.1557 85.4315 17.4575C85.8708 15.1092 88.9109 12.9716 90.9927 12.5118C92.3122 13.173 93.7152 13.8984 94.2143 15.4005C94.4265 15.9939 94.5185 16.6242 94.4847 17.2542ZM89.9799 21.8226C89.9932 21.7456 90.019 21.6713 90.0561 21.6028C90.0348 21.6774 90.0093 21.7508 89.9799 21.8226ZM97.5503 16.2174C97.2907 16.2944 97.0348 16.3695 96.7843 16.4556C96.7379 15.8222 96.6506 15.1926 96.523 14.5707C96.9363 15.0711 97.2818 15.6249 97.5503 16.2174ZM96.7535 25.4092C96.3905 24.7131 96.1237 23.6617 96.4377 22.1395C96.6936 20.8902 97.494 20.0037 98.4342 19.26C98.6129 20.3466 98.5551 21.4595 98.2649 22.5214C97.9747 23.5833 97.4589 24.5687 96.7535 25.4092Z" fill="#182938"/>
</svg>
