<svg width="582" height="122" viewBox="0 0 582 122" fill="none" xmlns="http://www.w3.org/2000/svg">
<path fill-rule="evenodd" clip-rule="evenodd" d="M562.833 52.2776L562.834 52.2778L562.835 52.2784C570.397 55.0957 576.813 57.4858 578.953 59.0352C583.492 62.3266 581.617 84.8842 581.617 84.8842C581.617 84.8842 552.725 120.445 552.725 119.956C552.725 119.467 544.122 103.323 530.177 99.2102C516.231 95.0975 507.634 96.9094 507.634 96.9094C507.634 96.9094 510.087 92.3731 512.405 83.3201C508.315 79.0314 505.991 74.645 505.008 69.5742C503.095 59.6543 514.325 56.1088 514.325 56.1088C514.325 56.1088 505.496 64.497 514.581 73.7782C517.336 63.7084 521.747 62.4439 521.747 62.4439C521.747 62.4439 517.682 74.2539 524.353 80.4196C526.727 81.5607 529.144 82.5182 531.479 83.4432C533.078 84.0768 534.639 84.6953 536.122 85.3471C536.254 85.3165 536.383 85.2728 536.507 85.2167C536.457 85.294 536.412 85.3746 536.372 85.4578C540.128 87.1328 543.358 89.0425 545.412 91.9755C553.553 91.5062 561.04 87.6413 562.748 78.8098C564.674 68.7661 555.846 60.6972 544.77 61.3555C533.695 62.0137 532.238 62.3071 532.238 62.3071C532.238 62.3071 544.565 58.2205 538.401 54.929C536.805 54.0769 534.829 53.4326 532.705 52.7405C526.626 50.7594 519.343 48.3858 516.341 39.619C515.069 35.9048 514.483 33.4545 514.043 31.6111L514.043 31.6106C513.081 27.5833 512.811 26.4532 507.583 21.3695C499.962 13.959 498.986 1.28212 499.147 1.9404C499.307 2.59869 502.877 13.6526 518.125 13.796C530.601 13.9133 539.493 4.24015 542.402 1.07553C543.048 0.372232 543.399 -0.00961091 543.428 0.108899C543.481 0.322325 545.864 1.73643 549.228 3.73261L549.229 3.73307C556.138 7.83294 567.184 14.3878 570.677 18.039C575.871 23.4682 575.871 27.255 575.871 27.255C575.871 27.255 565.322 29.5557 558.902 37.0836C560.282 35.0697 562.593 29.647 555.268 21.8258C545.875 11.782 534.992 15.2299 531.75 20.0139C528.507 24.7979 524.283 34.8285 537.425 41.7438C544.38 45.4034 554.331 49.1105 562.833 52.2776ZM273.686 41.4181C281.313 36.4777 281.152 29.7254 281.152 29.7254C281.152 29.7254 286.032 36.3083 287.316 44.3772C288.6 52.446 287.316 61.0038 287.316 61.0038C287.316 61.0038 286.668 54.9097 276.446 51.7812C266.225 48.6528 260.877 50.1388 259.901 58.3706C258.925 66.6024 263.471 74.2998 263.471 74.2998C263.471 74.2998 260.203 75.8379 260.061 84.728C259.92 93.6181 261.846 117.91 261.846 117.91C261.846 117.91 255.516 106.139 245.949 102.182C236.383 98.2262 234.758 97.5744 234.758 97.5744C234.758 97.5744 249.365 101.511 250.983 89.5055C252.601 77.5 248.305 75.5447 248.305 75.5447C248.305 75.5447 251.137 76.1378 251.464 66.4199C251.792 56.7021 250.495 48.1378 239.952 49.1285C229.41 50.1192 223.728 60 223.728 60C223.728 60 224.537 43.041 227.298 36.4517C230.058 29.8623 232.325 28.7152 232.325 28.7152C232.325 28.7152 232.492 36.6211 237.68 40.7337C242.867 44.8464 247.574 44.0252 247.574 44.0252L254.713 26.4275L263.792 44.0252C263.792 44.0252 266.058 46.3585 273.686 41.4181ZM141.816 42.8196C148.872 37.4099 149.848 32.1958 149.848 32.1958C149.848 32.1958 154.952 45.2832 156.172 54.421C157.392 63.5588 156.172 65.286 156.172 65.286C156.172 65.286 154.741 52.9024 143.787 50.6799C132.834 48.4574 121.406 49.2004 120.674 54.1408C119.942 59.0812 119.942 71.1845 119.942 71.1845C119.942 71.1845 128.455 67.2479 135.511 69.2292C142.567 71.2106 145.001 74.2934 145.001 74.2934C145.001 74.2934 128.263 70.9629 124.102 79.3576C119.942 87.7524 120.198 94.6807 123.107 98.3762C126.015 102.072 142.567 103.805 156.192 91.2068C156.192 91.2068 153.765 107.266 150.599 112.943C147.434 118.62 145.733 119.858 145.733 119.858C145.733 119.858 148.134 106.282 132.59 103.564C117.046 100.846 111.91 112.207 111.91 112.207C111.91 112.207 103.383 106.523 97.7846 102.574C92.186 98.6239 91.454 95.906 91.454 95.906C91.454 95.906 98.0222 101.863 105.81 98.8716C113.598 95.88 113.13 80.3483 110.189 77.6304C107.248 74.9126 105.322 74.4173 105.322 74.4173C105.322 74.4173 113.117 75.408 111.653 65.2925C110.87 59.8855 107.309 55.7411 103.865 51.7345C100.867 48.2455 97.9582 44.861 97.0527 40.8382C95.1073 32.1958 95.3513 28.7415 95.3513 28.7415C95.3513 28.7415 100.7 44.5533 112.378 45.2898C114.425 45.4188 116.441 45.5929 118.413 45.7631L118.413 45.7631L118.413 45.7632L118.413 45.7632L118.414 45.7632L118.414 45.7632L118.414 45.7632L118.414 45.7632L118.414 45.7632L118.414 45.7632L118.414 45.7632C127.697 46.5646 135.997 47.2812 141.816 42.8196ZM184.344 77.1807C183.908 77.311 183.664 77.3957 183.664 77.3957C183.903 77.3736 184.135 77.3004 184.344 77.1807ZM187.843 62.2943C175.645 51.9573 177.911 43.0672 187.843 42.3242C197.776 41.5812 201.673 57.1454 201.673 57.1454C201.673 57.1454 203.599 52.4526 207.509 50.7189C211.419 48.9852 212.864 48.9917 212.864 48.9917C212.864 48.9917 201.673 42.5718 196.318 37.6314C190.964 32.691 186.585 33.1864 186.585 33.1864C186.585 33.1864 186.585 41.5811 176.852 42.3111C167.118 43.0411 157.879 37.6184 157.879 37.6184C157.879 37.6184 160.306 44.7878 164.203 47.7468L168.094 50.7059C168.094 50.7059 164.203 59.8306 173.449 64.784C174.967 65.5974 176.347 66.3169 177.591 66.9651L177.592 66.9659L177.598 66.9689L177.598 66.9689L177.598 66.969C183.923 70.2657 186.709 71.7177 186.097 74.2933C185.667 76.1183 184.903 76.8613 184.344 77.1676C186.547 76.5159 193.744 74.6975 199.24 77.3828C205.808 80.596 206.533 89.2383 201.429 94.1787C196.325 99.1191 187.747 103.069 181.327 96.8966C174.906 90.7244 172.98 78.6472 172.98 78.6472C171.783 82.7283 170.236 86.6952 168.357 90.5028C164.948 97.6722 163.221 102.358 163.221 102.358C163.221 102.358 169.789 99.3995 182.444 104.092C195.099 108.785 197.044 117.923 197.044 117.923L217.48 92.973C217.48 92.973 218.206 79.6378 217.48 76.1769C217.184 74.7644 214.226 73.9154 209.999 72.702C203.868 70.9423 195.067 68.4163 187.843 62.2943ZM412.854 66.7721C420.642 54.4276 428.186 64.8168 428.186 64.8168C428.186 64.8168 429.4 62.5942 425.509 55.692C421.618 48.7898 403.365 31.733 403.365 31.733C403.365 31.733 403.365 39.8867 391.204 41.8615C381.511 43.4357 373.808 37.0088 370.598 34.3297C369.78 33.6478 369.254 33.2087 369.06 33.206C368.668 33.2007 369.373 34.1128 370.862 36.0404C373.009 38.8188 376.786 43.7072 381.259 50.9992C387.371 60.9632 386.63 68.5136 385.731 77.6747C385.516 79.8694 385.291 82.1565 385.15 84.5914C384.418 97.19 370.312 98.9303 370.312 98.9303C370.312 98.9303 372.013 99.1779 380.283 101.889C388.553 104.601 397.073 117.206 397.073 117.206C397.073 117.206 392.938 91.5197 392.482 78.921C392.253 71.0771 393.228 63.2448 395.371 55.7051C395.371 55.7051 389.772 48.2944 394.151 45.8242C398.53 43.354 412.642 45.5766 412.642 55.9527C412.642 65.3049 401.772 63.0139 399.082 62.4468C398.787 62.3847 398.591 62.3432 398.517 62.34C398.28 62.3296 398.788 63.0076 399.797 64.3531C401.951 67.2255 406.387 73.1401 410.716 81.893C417.072 94.7459 412.905 104.366 412.905 104.366C412.905 104.366 415.827 104.614 423.005 108.075C427.327 110.183 430.866 113.647 433.098 117.955C433.098 117.955 432.372 109.306 426.035 93.2534C421.809 82.5485 417.184 74.6231 414.687 70.345C413.44 68.2076 412.724 66.9805 412.854 66.7721ZM481.708 47.0364L486.093 39.6063C486.093 39.6063 490.029 44.3251 494.632 51.2403C499.236 58.1556 497.309 64.0867 497.309 64.0867C497.309 64.0867 497.335 59.1463 491.955 56.6761C487.098 54.4464 487.023 58.4511 486.875 66.3369C486.859 67.1873 486.842 68.0828 486.818 69.0205C486.759 71.3727 486.627 73.9312 486.493 76.5197L486.493 76.5225L486.493 76.525C486.08 84.5361 485.652 92.8338 487.306 96.1927C488.465 98.6849 490.122 100.905 492.173 102.71C492.173 102.71 486.574 102.854 483.416 109.026C481.085 113.575 480.212 115.974 479.91 117.121C480.212 114.605 480.687 107.084 476.359 104.829C471.024 102.072 463.217 119.168 463.217 119.168C463.217 119.168 461.535 102.867 452.154 101.635C444.893 100.644 440.045 103.538 438.569 104.894C439.724 102.033 442.293 89.9488 442.293 72.1686C442.293 51.7096 434.267 31.7003 434.267 31.7003C434.267 31.7003 445.227 47.0364 454.215 48.9917C454.215 48.9917 450.832 83.3268 452.758 89.2514C454.684 95.176 463.461 102.111 466.626 102.606C469.791 103.101 477.547 102.619 478.305 83.3398C479.062 64.0606 473.926 54.9359 473.926 54.9359C473.926 54.9359 477.329 54.447 481.708 47.0364ZM438.158 105.552C438.254 105.552 438.395 105.324 438.569 104.9C438.145 105.285 437.991 105.552 438.158 105.552ZM479.91 117.101C479.831 117.362 479.781 117.631 479.762 117.903C479.848 117.644 479.898 117.374 479.91 117.101ZM558.901 37.0839C558.657 37.3707 558.42 37.6575 558.189 37.9573C558.454 37.691 558.693 37.3985 558.901 37.0839ZM51.5563 0.106191C51.5563 0.106191 52.0378 2.82408 49.1229 9.73933C46.208 16.6546 36.2242 16.9087 24.0831 13.689C11.9421 10.4693 6.10586 0.106191 6.10586 0.106191C6.10586 0.106191 8.53921 12.946 19.4861 25.297C27.7116 34.5776 27.2878 39.2546 26.5687 47.1893L26.5687 47.1893C26.3308 49.8144 26.0606 52.796 26.0606 56.4189C26.0606 58.9344 26.1387 61.5447 26.2167 64.1536C26.5906 76.6589 26.9635 89.1313 18.7349 90.9756C12.5576 92.2956 6.17728 92.2956 0 90.9756L28.25 108.515L29.9514 104.558C31.6529 100.609 35.7876 97.6432 46.497 98.3862C57.2063 99.1292 57.1485 121.335 57.1485 121.335L70.7727 99.8266C70.7727 99.8266 66.4389 92.9374 64.7375 91.2884C66.9461 92.2987 74.6699 95.1339 74.6699 95.1339L88.2941 79.8239C88.2941 79.8239 89.9956 55.6172 82.6955 38.3323C75.3954 21.0475 51.5563 0.106191 51.5563 0.106191ZM43.7747 18.8575C51.3187 19.3529 62.5096 29.4748 67.8578 45.039C69.1625 49.0779 69.9311 53.2753 70.1435 57.5203C68.3092 56.6612 66.331 55.8779 64.2904 55.0699C58.8388 52.9114 52.942 50.5765 48.1534 46.147C37.8293 36.5726 47.139 27.7411 47.139 27.7411C47.139 27.7411 41.4184 29.5465 38.8373 34.1936C38.8452 31.2143 38.6802 28.2371 38.343 25.2774C38.2458 24.7759 38.1486 24.3079 38.058 23.8721C37.1667 19.5844 36.9209 18.402 43.7747 18.8575ZM38.6383 89.4961C37.2451 86.6609 40.7442 85.1553 42.5933 84.7056C42.863 85.2009 43.1519 85.7028 43.4537 86.2242C44.7745 88.4515 45.8921 90.7968 46.7923 93.2307C42.696 92.7027 39.5308 91.2624 38.6383 89.4961ZM60.0505 91.7186C57.0433 92.8234 53.8746 93.4072 50.6767 93.4457C51.129 92.0792 51.3737 90.6506 51.4022 89.2092C51.447 86.3699 49.4985 83.9744 47.3449 81.3267C45.4892 79.0453 43.4812 76.5767 42.4649 73.4756C40.2691 66.7754 46.4199 65.2308 46.4199 65.2308C46.4199 65.2308 40.9497 64.0706 39.2739 68.4896C39.1297 63.4165 39.0722 56.7654 39.0154 50.1798V50.1797V50.1794C39.0014 48.5581 38.9874 46.9408 38.9722 45.3519C41.9384 53.2643 48.9945 59.6908 62.1693 67.512C64.9622 69.1675 67.3891 70.7708 69.5015 72.3024C68.1082 81.8704 64.7888 89.9523 60.0698 91.7186H60.0505ZM358.165 54.5317C366.1 49.3697 364.45 38.8307 364.45 38.8307L364.425 37.7879C364.425 37.7879 370.569 51.0057 366.075 58.0317C364.739 60.1239 362.569 61.8706 360.123 63.5783C361.876 70.487 361.933 77.7021 359.95 83.7309C355.25 98.0503 333.356 117.154 333.356 117.154C333.356 117.154 311.141 108.342 300.271 89.6946C294.923 80.4981 296.881 64.2952 298.987 55.0792C300.233 49.503 299.665 43.6673 297.369 38.4461C302.13 39.706 307.065 40.1467 311.969 39.7496C313.888 39.5464 315.789 39.2001 317.658 38.7133C314.082 32.9973 317.555 22.2693 317.555 22.2693L317.658 23.1426C317.658 23.1426 317.337 32.2022 324.554 35.7217C325.654 36.2494 326.805 36.6621 327.988 36.9536C332.47 36.7711 337.568 37.5727 343.597 40.7403C349.42 43.7971 353.978 49.0569 357.035 55.1835C357.413 54.988 357.792 54.7729 358.165 54.5317ZM338.491 61.3904C338.54 61.5 338.589 61.6099 338.64 61.7208C338.759 59.4793 338.434 57.2363 337.683 55.1249C335.918 49.7804 330.955 47.1994 326.287 44.8465C318.923 46.4824 308.169 54.0885 306.615 62.4442C304.798 72.0447 304.47 83.0531 309.825 89.4991C315.18 95.9451 324.098 98.5521 324.098 98.5521C324.098 98.5521 320.046 95.4236 318.583 84.3957C318.03 80.0484 318.184 74.8408 318.583 70.122C317.508 69.7936 316.349 69.6613 315.231 69.5337C313.732 69.3626 312.308 69.2 311.263 68.5839C308.624 67.0262 308.451 61.6099 308.451 61.6099L308.624 61.9554C308.624 61.9554 309.825 65.7225 313.305 66.068C314.496 66.1881 315.59 65.9768 316.642 65.7736C317.474 65.6131 318.279 65.4577 319.083 65.4749C319.693 60.4237 320.412 56.7282 320.412 56.7282C320.412 56.7282 327.308 66.1137 329.215 73.5242C331.122 80.9348 329.985 84.3957 329.985 84.3957C329.985 84.3957 326.762 79.3966 324.637 77.5717C323.597 77.878 322.679 78.1127 322.711 77.9823C322.107 80.8696 323.263 88.4497 326.563 91.7998C329.863 95.1499 334.178 98.1089 335.693 88.4823C335.333 84.6952 335.288 80.8841 335.558 77.0894C332.952 64.0736 322.833 50.9666 322.833 50.9666C322.833 50.9666 333.748 51.4228 338.242 60.8473C338.33 61.0298 338.41 61.2098 338.491 61.3904ZM322.704 77.9758C322.751 77.7018 322.843 77.4376 322.974 77.1937C322.898 77.4593 322.808 77.7203 322.704 77.9758ZM349.329 58.0779L349.484 58.0317C348.534 55.9235 347.312 53.953 345.85 52.1723C346.302 54.3851 346.611 56.6255 346.775 58.8791C347.611 58.59 348.464 58.3357 349.329 58.0779ZM345.548 79.1033C344.438 84.5195 345.382 88.2607 346.666 90.7374C349.161 87.7468 350.986 84.2405 352.012 80.4622C353.039 76.684 353.243 72.7241 352.611 68.8576C349.285 71.5037 346.454 74.6583 345.548 79.1033Z" fill="black"/>
</svg>
