<svg width="24" height="18" viewBox="0 0 24 18" fill="none" xmlns="http://www.w3.org/2000/svg">
<path fill-rule="evenodd" clip-rule="evenodd" d="M3.99545 0.19505C4.30195 -0.08358 4.77628 -0.0609925 5.05491 0.245501L15.0711 11.2633L15.0777 11.2705L15.0843 11.2778L20.0549 16.7455C20.3335 17.052 20.311 17.5263 20.0045 17.805C19.698 18.0836 19.2236 18.061 18.945 17.7545L16.881 15.4841C15.3459 16.1656 13.6809 16.5128 11.997 16.5C7.99914 16.4991 5.19456 14.6928 3.40713 12.9053C2.51536 12.0136 1.87231 11.1231 1.45122 10.4543L0.819058 9.31452C0.717713 9.07792 0.716852 8.94212 0.814844 8.69485L1.1603 8.03093C1.38545 7.63546 1.7253 7.09151 2.19011 6.48503C2.9827 5.45086 4.15088 4.21899 5.74805 3.23786L3.945 1.25451C3.66637 0.948017 3.68896 0.47368 3.99545 0.19505ZM14.43 12.788L15.8094 14.3053C14.5994 14.7734 13.3091 15.0102 12.0058 15H12C8.49939 15 6.05492 13.4318 4.46779 11.8447C3.67206 11.0489 3.09635 10.2519 2.72057 9.65508C2.5535 9.38973 2.42679 9.1653 2.33856 9.00003C2.37404 8.93359 2.41576 8.85753 2.46385 8.77306C2.66101 8.42674 2.96388 7.94131 3.38067 7.39748C4.1366 6.41115 5.25353 5.25051 6.7776 4.37037L8.46006 6.22107C7.88682 6.95127 7.54941 7.84648 7.50469 8.78602C7.44794 9.97824 7.86712 11.1442 8.67001 12.0273C9.47291 12.9105 10.5938 13.4385 11.786 13.4953C12.7255 13.54 13.6486 13.2892 14.43 12.788ZM9.49081 7.3549L13.3992 11.6541C12.929 11.902 12.3972 12.0227 11.8573 11.997C11.0625 11.9591 10.3152 11.6071 9.77991 11.0183C9.24462 10.4295 8.96516 9.65219 9.00299 8.85734C9.02869 8.31739 9.19939 7.7994 9.49081 7.3549Z" fill="#606C75"/>
<path d="M12.847 4.57995C12.4401 4.50205 12.0472 4.76869 11.9693 5.17551C11.8914 5.58233 12.158 5.97528 12.5648 6.05318C13.2026 6.17532 13.7836 6.50112 14.2204 6.98163C14.6572 7.46213 14.9264 8.07141 14.9873 8.71793C15.0262 9.13032 15.3921 9.43309 15.8044 9.39419C16.2168 9.3553 16.5196 8.98946 16.4807 8.57708C16.3892 7.6073 15.9856 6.69338 15.3303 5.97262C14.6751 5.25185 13.8037 4.76316 12.847 4.57995Z" fill="#606C75"/>
<path d="M9.93914 1.66751C10.6205 1.55511 11.3099 1.49909 12.0005 1.50001C15.9996 1.50016 18.805 3.30688 20.5928 5.09468C21.4846 5.98644 22.1276 6.87691 22.5487 7.54571L23.1846 8.69385L23.1837 8.69167C23.3019 8.94306 23.296 9.07737 23.1834 9.30879L23.1846 9.30631L22.4227 10.6507C21.9161 11.4256 21.1395 12.443 20.0575 13.4119C19.7489 13.6882 19.2747 13.662 18.9984 13.3534C18.7221 13.0449 18.7483 12.5707 19.0568 12.2944C20.0186 11.4332 20.7134 10.5241 21.1672 9.8299C21.3907 9.48806 21.5543 9.2006 21.6614 9.00002C21.5731 8.83475 21.4464 8.61031 21.2793 8.34493C20.9036 7.7481 20.3279 6.95107 19.5321 6.15534C17.945 4.5682 15.5005 3.00001 12 3.00001L11.9989 3C11.3907 2.99917 10.7834 3.04851 10.1833 3.1475C9.77459 3.21492 9.38863 2.93827 9.32121 2.52958C9.25379 2.12088 9.53045 1.73492 9.93914 1.66751Z" fill="#606C75"/>
</svg>
